<svg id="Group_2395" data-name="Group 2395" xmlns="http://www.w3.org/2000/svg" width="129.5" height="44.969" viewBox="0 0 129.5 44.969">
  <g id="Group_2385" data-name="Group 2385">
    <path id="Path_3879" data-name="Path 3879" d="M22.484,0A22.484,22.484,0,1,0,44.969,22.484,22.507,22.507,0,0,0,22.484,0ZM36.529,33.148A1.125,1.125,0,0,1,35.4,34.275H9.6A1.125,1.125,0,0,1,8.47,33.148V16.33a1.134,1.134,0,0,1,.4-.853l12.887-9.17a1.153,1.153,0,0,1,1.493,0l12.887,9.17a1.134,1.134,0,0,1,.4.853Z" fill="#fff"/>
    <path id="Path_3880" data-name="Path 3880" d="M83.6,53.5c-1.1-.792-2.712-.579-4.174.427-1.462-1.005-3.077-1.219-4.174-.427-1.584,1.158-1.462,4.022.244,6.368a6.2,6.2,0,0,0,3.93,2.651,6.317,6.317,0,0,0,3.93-2.651C85.064,57.522,85.185,54.658,83.6,53.5Z" transform="translate(-51.55 -36.865)" fill="#fff"/>
  </g>
  <g id="Group_2387" data-name="Group 2387" transform="translate(106.64 2.011)">
    <path id="Path_3881" data-name="Path 3881" d="M378.6,58.753a.852.852,0,0,0-.853-.853H365.253a.852.852,0,0,0-.853.853h0v3.138h0v3.077h0a.852.852,0,0,0,.853.853h12.491a.852.852,0,0,0,.853-.853h0V58.753Zm-2.133,5.362h-9.932V62.775h9.932Zm-9.932-3.108V59.637h9.932v1.371Z" transform="translate(-360.02 -42.271)" fill="#fff"/>
    <g id="Group_2386" data-name="Group 2386" transform="translate(3.497 7.007)">
      <path id="Path_3882" data-name="Path 3882" d="M377.495,30.453a.852.852,0,0,0-.853-.853H362.353a.852.852,0,0,0-.853.853h0V36.12h0a.852.852,0,0,0,.853.853h14.289a.852.852,0,0,0,.853-.853h0V30.453Zm-13.893.884h4.783V35.3H363.6Zm6.946,0h4.783V35.3h-4.783Z" transform="translate(-361.5 -29.6)" fill="#fff"/>
      <path id="Path_3883" data-name="Path 3883" d="M374.224,38.2l-.579-.579a1.048,1.048,0,0,0-1.462,0l-.061.061a1.048,1.048,0,0,0,0,1.462l.579.579a1.048,1.048,0,0,0,1.462,0l.061-.061A1.048,1.048,0,0,0,374.224,38.2Z" transform="translate(-368.679 -34.971)" fill="#fff"/>
      <path id="Path_3884" data-name="Path 3884" d="M396.824,37.683l-.061-.061a1.048,1.048,0,0,0-1.462,0l-.579.579a1.048,1.048,0,0,0,0,1.462l.061.061a1.048,1.048,0,0,0,1.462,0l.579-.579A1.048,1.048,0,0,0,396.824,37.683Z" transform="translate(-384.394 -34.971)" fill="#fff"/>
    </g>
    <path id="Path_3885" data-name="Path 3885" d="M372.074,11.871a19.86,19.86,0,0,1-9.9-5.027c-.03-.03-.03-.03-.061-.03-.03-.03-.061-.03-.091-.061s-.061-.03-.091-.061a.112.112,0,0,0-.091-.03c-.03,0-.061-.03-.091-.03s-.061-.03-.091-.03h-.366c-.03,0-.061.03-.091.03s-.061.03-.091.03-.061.03-.091.03c-.03.03-.061.03-.091.061s-.061.03-.091.061c-.03,0-.03.03-.061.03a20.233,20.233,0,0,1-9.9,5.027,1.018,1.018,0,0,0-.823,1.219,1.041,1.041,0,0,0,1.005.853.386.386,0,0,0,.183-.03,22.278,22.278,0,0,0,5.911-2.041.915.915,0,0,0,.884.7h6.855a.922.922,0,0,0,.884-.67,22.378,22.378,0,0,0,5.88,2.011c.061,0,.122.03.183.03a1.012,1.012,0,0,0,1.005-.853A.953.953,0,0,0,372.074,11.871Zm-12.887-1.127A20.857,20.857,0,0,0,361.5,9.007a21.846,21.846,0,0,0,2.315,1.737Z" transform="translate(-350.023 -6.6)" fill="#fff"/>
  </g>
  <g id="Group_2389" data-name="Group 2389" transform="translate(79.856 3.238)">
    <g id="Group_2388" data-name="Group 2388" transform="translate(9.411 0.905)">
      <path id="Path_3886" data-name="Path 3886" d="M305.887,15.428H293.914a.917.917,0,0,1-.914-.914h0a.917.917,0,0,1,.914-.914h11.973a.917.917,0,0,1,.914.914h0A.9.9,0,0,1,305.887,15.428Z" transform="translate(-293 -13.6)" fill="#fff"/>
    </g>
    <path id="Path_3887" data-name="Path 3887" d="M308.512,25.666c0-.091-.03-.183-.03-.274a.862.862,0,0,0-.853-.792h-9.475a.852.852,0,0,0-.853.853h0v3.808h0a.852.852,0,0,0,.853.853h9.475a1.06,1.06,0,0,0,.884-1.066Zm-9.079.67h6.916v2.072h-6.916Z" transform="translate(-286.579 -20.343)" fill="#fff"/>
    <path id="Path_3888" data-name="Path 3888" d="M270.638,21.8a10.585,10.585,0,0,0-2.651-2.559l2.376-3.6a.728.728,0,0,0,.152-.427.811.811,0,0,0,.091-.366h0a.949.949,0,0,0-.944-.944h-1.31c-.03-.03-.03-.091-.061-.122a11.8,11.8,0,0,0-2.346-2.894,1.036,1.036,0,1,0-1.371,1.554,9.8,9.8,0,0,1,1.31,1.462h-2.5a.949.949,0,0,0-.944.944h0a.949.949,0,0,0,.944.944h4.326l-5.423,8.165a1.041,1.041,0,0,0,.3,1.462h0a1.041,1.041,0,0,0,1.462-.3l1.432-2.163v9.018a1.027,1.027,0,0,0,1.036,1.036h0a1.027,1.027,0,0,0,1.036-1.036V21.588A9.951,9.951,0,0,1,268.9,23.02a1.106,1.106,0,0,0,.944.427,1,1,0,0,0,.487-.213A.969.969,0,0,0,270.638,21.8Z" transform="translate(-262.111 -10.629)" fill="#fff"/>
    <path id="Path_3889" data-name="Path 3889" d="M306.03,48.4H294.605a1.014,1.014,0,0,0-1.005,1.005V58.18a1.014,1.014,0,0,0,1.005,1.005H306.03a1.014,1.014,0,0,0,1.005-1.005V49.405A1.014,1.014,0,0,0,306.03,48.4Zm-1.005,4.509H301.4v-2.5h3.626Zm-5.789-2.5V52.94h-3.626V50.411Zm-3.626,4.265h3.626V57.2h-3.626Zm5.789,2.5v-2.5h3.626V57.2H301.4Z" transform="translate(-284.006 -36.892)" fill="#fff"/>
  </g>
  <g id="Group_2390" data-name="Group 2390" transform="translate(54.657 28.73)">
    <path id="Path_3890" data-name="Path 3890" d="M179.552,109.084a.489.489,0,0,1-.152-.335V95.618a.486.486,0,0,1,.122-.366.5.5,0,0,1,.366-.152h1.858a.52.52,0,0,1,.518.518V100.8h5.88V95.618a.5.5,0,0,1,.152-.366.489.489,0,0,1,.335-.152h1.889a.5.5,0,0,1,.366.152.486.486,0,0,1,.122.366v13.131a.458.458,0,0,1-.122.335.5.5,0,0,1-.366.152h-1.889a.524.524,0,0,1-.487-.487v-5.393h-5.88v5.393a.489.489,0,0,1-.152.335.5.5,0,0,1-.366.152h-1.858A.489.489,0,0,1,179.552,109.084Z" transform="translate(-179.4 -94.856)" fill="#fff"/>
    <path id="Path_3891" data-name="Path 3891" d="M233.752,109.084a.489.489,0,0,1-.152-.335V95.618a.486.486,0,0,1,.122-.366.5.5,0,0,1,.366-.152h1.828a.52.52,0,0,1,.518.518v4.722l4.509-4.875a.983.983,0,0,1,.792-.366h2.072a.416.416,0,0,1,.427.427.346.346,0,0,1-.091.244l-5.484,6.093,5.88,6.672a.491.491,0,0,1,.091.274.391.391,0,0,1-.122.3.372.372,0,0,1-.274.122H242.1a.857.857,0,0,1-.609-.183c-.122-.122-.183-.183-.213-.183l-4.814-5.332v5.21a.489.489,0,0,1-.152.335.5.5,0,0,1-.366.152h-1.828A.5.5,0,0,1,233.752,109.084Z" transform="translate(-217.087 -94.856)" fill="#fff"/>
    <path id="Path_3892" data-name="Path 3892" d="M281.452,109.084a.489.489,0,0,1-.152-.335V95.618a.486.486,0,0,1,.122-.366.5.5,0,0,1,.366-.152h8.774a.52.52,0,0,1,.518.518V97.08a.489.489,0,0,1-.152.335.5.5,0,0,1-.366.152H284.1v3.778h6.063a.5.5,0,0,1,.366.152.489.489,0,0,1,.152.335V103.3a.489.489,0,0,1-.152.335.5.5,0,0,1-.366.152H284.1v5a.489.489,0,0,1-.152.335.5.5,0,0,1-.366.152h-1.828A.812.812,0,0,1,281.452,109.084Z" transform="translate(-250.255 -94.856)" fill="#fff"/>
    <path id="Path_3893" data-name="Path 3893" d="M326.807,108.7,324.43,95.779l-.03-.152a.416.416,0,0,1,.427-.427h1.828a.691.691,0,0,1,.4.091c.091.061.122.152.152.3l1.676,9.079,1.8-5.85a.7.7,0,0,1,.67-.518h1.1a.66.66,0,0,1,.427.152.565.565,0,0,1,.213.366l1.828,5.85,1.645-9.079c.03-.274.213-.4.579-.4h1.828a.3.3,0,0,1,.274.122.391.391,0,0,1,.122.3.228.228,0,0,1-.03.152L336.952,108.7a.682.682,0,0,1-.244.457.671.671,0,0,1-.487.152H334.85a.748.748,0,0,1-.457-.152.606.606,0,0,1-.244-.366l-2.255-6.7-2.255,6.7a.688.688,0,0,1-.7.518h-1.371A.709.709,0,0,1,326.807,108.7Z" transform="translate(-280.223 -94.926)" fill="#fff"/>
    <path id="Path_3894" data-name="Path 3894" d="M386.451,108.345a4.656,4.656,0,0,1-1.95-1.432,3.316,3.316,0,0,1-.7-1.95.417.417,0,0,1,.427-.427h1.828a.65.65,0,0,1,.366.091,1.164,1.164,0,0,1,.274.274,1.968,1.968,0,0,0,.914,1.158,3.664,3.664,0,0,0,1.98.457,3.745,3.745,0,0,0,2.133-.487,1.48,1.48,0,0,0,.731-1.31,1.24,1.24,0,0,0-.366-.914,3.062,3.062,0,0,0-1.1-.64c-.487-.183-1.219-.4-2.194-.67a8.8,8.8,0,0,1-3.5-1.493,3.254,3.254,0,0,1-1.1-2.651,3.642,3.642,0,0,1,.64-2.1,4.075,4.075,0,0,1,1.858-1.432,7.188,7.188,0,0,1,2.8-.518,6.545,6.545,0,0,1,2.894.579,4.852,4.852,0,0,1,1.858,1.462,3.186,3.186,0,0,1,.67,1.737.416.416,0,0,1-.427.427h-1.919a.612.612,0,0,1-.609-.366,1.51,1.51,0,0,0-.792-1.066,3.293,3.293,0,0,0-1.706-.427,3.18,3.18,0,0,0-1.737.427,1.378,1.378,0,0,0-.64,1.219,1.348,1.348,0,0,0,.335.914,2.6,2.6,0,0,0,1.005.64,15.241,15.241,0,0,0,2.011.609,14.463,14.463,0,0,1,2.864.914,3.672,3.672,0,0,1,1.554,1.28,3.5,3.5,0,0,1,.518,1.95,3.661,3.661,0,0,1-.731,2.285,4.547,4.547,0,0,1-2.011,1.462,8.218,8.218,0,0,1-3.016.518A7.51,7.51,0,0,1,386.451,108.345Z" transform="translate(-321.526 -94.3)" fill="#fff"/>
  </g>
  <g id="Group_2393" data-name="Group 2393" transform="translate(54.657 2.477)">
    <g id="Group_2391" data-name="Group 2391" transform="translate(7.83 21.165)">
      <path id="Path_3895" data-name="Path 3895" d="M209.67,79.611h-3.565a1.005,1.005,0,0,1,0-2.011h3.565a1.005,1.005,0,1,1,0,2.011Z" transform="translate(-205.1 -77.6)" fill="#fff"/>
    </g>
    <g id="Group_2392" data-name="Group 2392" transform="translate(1.121 5.963)">
      <path id="Path_3896" data-name="Path 3896" d="M185.361,53.235l5.789-3.9a1.073,1.073,0,0,0-1.219-1.767l-5.789,3.9a1.073,1.073,0,0,0,1.219,1.767Z" transform="translate(-183.497 -41.384)" fill="#fff"/>
      <path id="Path_3897" data-name="Path 3897" d="M192.094,59.943a1.075,1.075,0,0,0-1.493-.274l-6.459,4.357a1.075,1.075,0,0,0-.274,1.493h0a1.075,1.075,0,0,0,1.493.274l6.459-4.357a1.07,1.07,0,0,0,.274-1.493Z" transform="translate(-183.497 -49.797)" fill="#fff"/>
      <path id="Path_3898" data-name="Path 3898" d="M202.645,40.8a9.545,9.545,0,0,1-5.667-5.3l3.412-2.285a1.075,1.075,0,0,0,.274-1.493h0a1.075,1.075,0,0,0-1.493-.274l-4.052,2.742a17.181,17.181,0,0,0-2.255-4.479l.152-.122h5.057a.949.949,0,0,0,.944-.944h0a.949.949,0,0,0-.944-.944H186.528a.949.949,0,0,0-.944.944h0a.949.949,0,0,0,.944.944h2.651L183.543,33.4a1.075,1.075,0,0,0-.274,1.493h0a1.075,1.075,0,0,0,1.493.274l6.4-4.326a15.488,15.488,0,0,1,2.285,12.8,1.045,1.045,0,0,0,.762,1.28.757.757,0,0,0,.244.03,1.035,1.035,0,0,0,1.005-.792,18.2,18.2,0,0,0,.487-6.124,11.637,11.637,0,0,0,6,4.753,1.572,1.572,0,0,0,.335.061,1.044,1.044,0,0,0,.975-.7A1,1,0,0,0,202.645,40.8Z" transform="translate(-183.079 -27.7)" fill="#fff"/>
    </g>
    <path id="Path_3899" data-name="Path 3899" d="M197.619,10.5h-6.368a13.309,13.309,0,0,0-1.828-2.1,1.036,1.036,0,1,0-1.371,1.554c.183.183.4.366.548.548H181.99a2.587,2.587,0,0,0-2.59,2.59v1.95a.975.975,0,1,0,1.95,0v-1.95a.611.611,0,0,1,.609-.609h15.66a.611.611,0,0,1,.609.609v1.95a.975.975,0,1,0,1.95,0v-1.95A2.562,2.562,0,0,0,197.619,10.5Z" transform="translate(-179.4 -8.129)" fill="#fff"/>
  </g>
</svg>
