<svg id="Group_2727" data-name="Group 2727" xmlns="http://www.w3.org/2000/svg" width="139.563" height="48.467" viewBox="0 0 139.563 48.467">
  <path id="Path_4007" data-name="Path 4007" d="M24.233,0A24.233,24.233,0,1,0,48.467,24.233,24.216,24.216,0,0,0,24.233,0ZM39.355,35.71a1.219,1.219,0,0,1-1.231,1.231H10.343A1.219,1.219,0,0,1,9.112,35.71V17.584a1.213,1.213,0,0,1,.443-.936l13.89-9.9a1.265,1.265,0,0,1,1.625,0l13.89,9.9a1.213,1.213,0,0,1,.443.936V35.71Z" fill="red"/>
  <path id="Path_4008" data-name="Path 4008" d="M59.521,35.884c-1.182-.837-2.906-.591-4.531.493-1.576-1.084-3.349-1.33-4.531-.493-1.724,1.231-1.576,4.334.3,6.9a6.784,6.784,0,0,0,4.236,2.857,6.784,6.784,0,0,0,4.236-2.857C61.1,40.219,61.245,37.116,59.521,35.884Z" transform="translate(-24.993 -17.956)" fill="red"/>
  <g id="Group_2720" data-name="Group 2720" transform="translate(114.945 2.167)">
    <path id="Path_4009" data-name="Path 4009" d="M258.269,39.536a.935.935,0,0,0-.936-.936h-13.4a.935.935,0,0,0-.936.936h0v3.349h0v3.3h0a.935.935,0,0,0,.936.936h13.4a.935.935,0,0,0,.936-.936h0V39.536ZM255.954,45.3H245.266V43.87h10.688Zm-10.688-3.349V40.472h10.688v1.478Z" transform="translate(-238.256 -21.755)" fill="red"/>
    <g id="Group_2719" data-name="Group 2719" transform="translate(3.759 7.536)">
      <path id="Path_4010" data-name="Path 4010" d="M258.239,20.636a.935.935,0,0,0-.936-.936H241.936a.935.935,0,0,0-.936.936h0v6.108h0a.935.935,0,0,0,.936.936H257.3a.935.935,0,0,0,.936-.936h0V20.636Zm-14.973.936h5.172v4.236h-5.172Zm7.487,0h5.172v4.236h-5.172Z" transform="translate(-241 -19.7)" fill="red"/>
      <path id="Path_4011" data-name="Path 4011" d="M250.474,25.849l-.591-.591a1.1,1.1,0,0,0-1.576,0l-.049.049a1.1,1.1,0,0,0,0,1.576l.591.591a1.1,1.1,0,0,0,1.576,0l.049-.049A1.1,1.1,0,0,0,250.474,25.849Z" transform="translate(-244.514 -22.351)" fill="red"/>
      <path id="Path_4012" data-name="Path 4012" d="M265.574,25.307l-.049-.049a1.1,1.1,0,0,0-1.576,0l-.591.591a1.1,1.1,0,0,0,0,1.576l.049.049a1.1,1.1,0,0,0,1.576,0l.591-.591A1.1,1.1,0,0,0,265.574,25.307Z" transform="translate(-252.177 -22.351)" fill="red"/>
    </g>
    <path id="Path_4013" data-name="Path 4013" d="M257.125,10.114A22.143,22.143,0,0,1,246.437,4.7l-.049-.049c-.049,0-.049-.049-.1-.049s-.049-.049-.1-.049-.049-.049-.1-.049-.049,0-.1-.049c-.049,0-.049,0-.1-.049H245.5c-.049,0-.049,0-.1.049-.049,0-.049,0-.1.049-.049,0-.049.049-.1.049s-.049.049-.1.049-.049.049-.1.049l-.049.049a21.72,21.72,0,0,1-10.688,5.418,1.137,1.137,0,0,0-.887,1.33,1.1,1.1,0,0,0,1.084.887h.2a25.474,25.474,0,0,0,6.354-2.167.949.949,0,0,0,.936.739h7.388a.949.949,0,0,0,.936-.739,22.041,22.041,0,0,0,6.354,2.167h.2a1.111,1.111,0,0,0,1.084-.887A.961.961,0,0,0,257.125,10.114Zm-13.89-1.231A18.025,18.025,0,0,0,245.7,7.011a29.472,29.472,0,0,0,2.463,1.872Z" transform="translate(-233.369 -4.4)" fill="red"/>
  </g>
  <g id="Group_2722" data-name="Group 2722" transform="translate(86.109 3.459)">
    <g id="Group_2721" data-name="Group 2721" transform="translate(10.135 1.023)">
      <path id="Path_4014" data-name="Path 4014" d="M209.29,11.07h-12.9a.988.988,0,0,1-.985-.985h0a.988.988,0,0,1,.985-.985h12.9a.988.988,0,0,1,.985.985h0A.988.988,0,0,1,209.29,11.07Z" transform="translate(-195.4 -9.1)" fill="red"/>
    </g>
    <path id="Path_4015" data-name="Path 4015" d="M210.217,17.633a.625.625,0,0,0-.049-.3.918.918,0,0,0-.936-.837h-10.2a.935.935,0,0,0-.936.936h0v4.088h0a.935.935,0,0,0,.936.936h10.146a.957.957,0,0,0,.936-.837.624.624,0,0,0,.049-.3V17.633Zm-9.752.69H207.9v2.266h-7.487V18.322Z" transform="translate(-186.635 -11.832)" fill="red"/>
    <path id="Path_4016" data-name="Path 4016" d="M183.973,19.079a11.68,11.68,0,0,0-2.857-2.758l2.561-3.891a1.749,1.749,0,0,0,.2-.443,1.158,1.158,0,0,0,.1-.394h0a1.04,1.04,0,0,0-1.034-1.034h-1.428c0-.049-.049-.1-.049-.148a12.858,12.858,0,0,0-2.512-3.1,1.117,1.117,0,1,0-1.478,1.675,10.866,10.866,0,0,1,1.428,1.576h-2.709a1.04,1.04,0,0,0-1.034,1.034h0a1.04,1.04,0,0,0,1.034,1.034h4.63l-5.812,8.817a1.126,1.126,0,0,0,.345,1.576h0a1.126,1.126,0,0,0,1.576-.345l1.527-2.315v9.752a1.115,1.115,0,0,0,1.133,1.133h0a1.115,1.115,0,0,0,1.133-1.133V18.882a8.618,8.618,0,0,1,1.428,1.576,1.083,1.083,0,0,0,1.034.443,1.033,1.033,0,0,0,.542-.2A1.234,1.234,0,0,0,183.973,19.079Z" transform="translate(-174.823 -7.023)" fill="red"/>
    <path id="Path_4017" data-name="Path 4017" d="M209.1,32.3H196.784a1.093,1.093,0,0,0-1.084,1.084v9.457a1.093,1.093,0,0,0,1.084,1.084H209.1a1.093,1.093,0,0,0,1.084-1.084V33.384A1.093,1.093,0,0,0,209.1,32.3Zm-1.034,4.827h-3.94V34.418h3.94Zm-6.255-2.709v2.709h-3.94V34.418Zm-3.94,4.63h3.94v2.709h-3.94Zm6.255,2.709V39.048h3.94v2.709Z" transform="translate(-185.417 -19.85)" fill="red"/>
  </g>
  <g id="Group_2723" data-name="Group 2723" transform="translate(58.909 31.08)">
    <path id="Path_4018" data-name="Path 4018" d="M119.748,78.472a.559.559,0,0,1-.148-.394V63.942a.559.559,0,0,1,.148-.394.485.485,0,0,1,.394-.148h2.019a.508.508,0,0,1,.542.542v5.566h6.354V63.942a.508.508,0,0,1,.542-.542h2.019a.508.508,0,0,1,.542.542V78.078a.655.655,0,0,1-.148.394.485.485,0,0,1-.394.148H129.6a.655.655,0,0,1-.394-.148.559.559,0,0,1-.148-.394V72.315H122.7v5.812a.655.655,0,0,1-.148.394.559.559,0,0,1-.394.148h-2.019A.99.99,0,0,1,119.748,78.472Z" transform="translate(-119.6 -63.252)" fill="red"/>
    <path id="Path_4019" data-name="Path 4019" d="M155.948,78.472a.559.559,0,0,1-.148-.394V63.942a.559.559,0,0,1,.148-.394.485.485,0,0,1,.394-.148h1.97a.509.509,0,0,1,.542.542v5.073l4.827-5.221a1.052,1.052,0,0,1,.837-.394h2.216a.426.426,0,0,1,.3.148.447.447,0,0,1,.148.345.376.376,0,0,1-.1.246l-5.911,6.551,6.354,7.191a.7.7,0,0,1,.1.3.447.447,0,0,1-.148.345.426.426,0,0,1-.3.148h-2.266c-.3,0-.542-.049-.64-.2a.59.59,0,0,1-.2-.2l-5.221-5.763v5.615a.655.655,0,0,1-.148.394.559.559,0,0,1-.394.148h-1.97A.742.742,0,0,1,155.948,78.472Z" transform="translate(-137.97 -63.252)" fill="red"/>
    <path id="Path_4020" data-name="Path 4020" d="M187.748,78.472a.559.559,0,0,1-.148-.394V63.942a.559.559,0,0,1,.148-.394.485.485,0,0,1,.394-.148H197.6a.508.508,0,0,1,.542.542v1.576a.655.655,0,0,1-.148.394.559.559,0,0,1-.394.148h-6.945v4.088h6.5a.509.509,0,0,1,.542.542v1.576a.655.655,0,0,1-.148.394.559.559,0,0,1-.394.148h-6.5v5.369a.655.655,0,0,1-.148.394.559.559,0,0,1-.394.148h-1.97A1.363,1.363,0,0,1,187.748,78.472Z" transform="translate(-154.107 -63.252)" fill="red"/>
    <path id="Path_4021" data-name="Path 4021" d="M218.861,77.929,216.3,63.99v-.2a.505.505,0,0,1,.493-.493h1.97a.637.637,0,0,1,.394.1c.1.049.148.2.2.345l1.822,9.8,1.921-6.3a.782.782,0,0,1,.739-.542h1.182a.6.6,0,0,1,.443.148,1.072,1.072,0,0,1,.246.394l1.97,6.3,1.773-9.8a.516.516,0,0,1,.591-.443h1.97a.426.426,0,0,1,.3.148.447.447,0,0,1,.148.345v.2L229.8,77.929a.938.938,0,0,1-.246.493.9.9,0,0,1-.542.2H227.53a.735.735,0,0,1-.493-.148.677.677,0,0,1-.246-.394l-2.414-7.24-2.413,7.24a.74.74,0,0,1-.739.542h-1.478A.863.863,0,0,1,218.861,77.929Z" transform="translate(-168.671 -63.201)" fill="red"/>
    <path id="Path_4022" data-name="Path 4022" d="M258.757,78.123a5.018,5.018,0,0,1-2.118-1.527,3.328,3.328,0,0,1-.739-2.069.426.426,0,0,1,.148-.3.447.447,0,0,1,.345-.148h1.97a.928.928,0,0,1,.394.1c.1.049.2.2.3.3a2.356,2.356,0,0,0,.985,1.231,3.748,3.748,0,0,0,2.118.493,4.26,4.26,0,0,0,2.315-.493,1.632,1.632,0,0,0,.788-1.379,1.375,1.375,0,0,0-.394-.985,3.246,3.246,0,0,0-1.182-.69,21.841,21.841,0,0,0-2.364-.69,8.588,8.588,0,0,1-3.743-1.625,3.574,3.574,0,0,1-1.182-2.857,4.09,4.09,0,0,1,.69-2.266,4.912,4.912,0,0,1,1.97-1.576,7.269,7.269,0,0,1,3-.542,6.714,6.714,0,0,1,3.1.64,5.559,5.559,0,0,1,2.02,1.576,3.92,3.92,0,0,1,.739,1.872.426.426,0,0,1-.148.3.447.447,0,0,1-.345.148h-2.118a.66.66,0,0,1-.64-.394,1.737,1.737,0,0,0-.837-1.182,3.445,3.445,0,0,0-1.822-.443,3.394,3.394,0,0,0-1.872.443,1.511,1.511,0,0,0-.69,1.33,1.342,1.342,0,0,0,.345.985,3.163,3.163,0,0,0,1.084.69,21.275,21.275,0,0,0,2.167.64,15.914,15.914,0,0,1,3.054.985,3.957,3.957,0,0,1,1.675,1.379,4.316,4.316,0,0,1-.246,4.581,4.529,4.529,0,0,1-2.167,1.576,9.362,9.362,0,0,1-3.251.542A9.205,9.205,0,0,1,258.757,78.123Z" transform="translate(-188.766 -63.1)" fill="red"/>
  </g>
  <g id="Group_2726" data-name="Group 2726" transform="translate(58.859 2.671)">
    <g id="Group_2724" data-name="Group 2724" transform="translate(8.521 22.794)">
      <path id="Path_4023" data-name="Path 4023" d="M141.676,53.867h-3.793a1.084,1.084,0,1,1,0-2.167h3.842a1.093,1.093,0,0,1,1.084,1.084A1.137,1.137,0,0,1,141.676,53.867Z" transform="translate(-136.8 -51.7)" fill="red"/>
    </g>
    <g id="Group_2725" data-name="Group 2725" transform="translate(1.326 6.441)">
      <path id="Path_4024" data-name="Path 4024" d="M124.2,37.827l6.255-4.236a1.168,1.168,0,1,0-1.33-1.921l-6.255,4.236a1.131,1.131,0,0,0-.3,1.625A1.145,1.145,0,0,0,124.2,37.827Z" transform="translate(-122.271 -25.071)" fill="red"/>
      <path id="Path_4025" data-name="Path 4025" d="M131.559,40.188a1.122,1.122,0,0,0-1.576-.3l-6.994,4.679a1.122,1.122,0,0,0-.3,1.576h0a1.122,1.122,0,0,0,1.576.3l6.994-4.679a1.158,1.158,0,0,0,.3-1.576Z" transform="translate(-122.344 -29.254)" fill="red"/>
      <path id="Path_4026" data-name="Path 4026" d="M143.228,32.587a10.285,10.285,0,0,1-6.108-5.714l3.694-2.463a1.122,1.122,0,0,0,.3-1.576h0a1.122,1.122,0,0,0-1.576-.3L135.2,25.494a17.735,17.735,0,0,0-2.414-4.827l.2-.1h5.369a1.04,1.04,0,0,0,1.034-1.034h0a1.04,1.04,0,0,0-1.034-1.034H125.89a1.04,1.04,0,0,0-1.034,1.034h0a1.04,1.04,0,0,0,1.034,1.034h2.857l-6.058,4.088a1.122,1.122,0,0,0-.3,1.576h0a1.122,1.122,0,0,0,1.576.3l6.9-4.63a16.7,16.7,0,0,1,2.463,13.791,1.138,1.138,0,0,0,.788,1.379c.1,0,.2.049.3.049a1.153,1.153,0,0,0,1.084-.837,18.811,18.811,0,0,0,.493-6.6,12.553,12.553,0,0,0,6.452,5.122.96.96,0,0,0,.394.049,1.111,1.111,0,0,0,1.034-.739A1.127,1.127,0,0,0,143.228,32.587Z" transform="translate(-122.192 -18.5)" fill="red"/>
    </g>
    <path id="Path_4027" data-name="Path 4027" d="M139.153,7.973h-6.846a14.454,14.454,0,0,0-1.97-2.266,1.117,1.117,0,1,0-1.478,1.675l.591.591h-7.142A2.806,2.806,0,0,0,119.5,10.78V12.9a1.084,1.084,0,1,0,2.167,0V10.78a.652.652,0,0,1,.64-.64H139.2a.652.652,0,0,1,.64.64V12.9a1.084,1.084,0,1,0,2.167,0V10.78A2.848,2.848,0,0,0,139.153,7.973Z" transform="translate(-119.5 -5.423)" fill="red"/>
  </g>
</svg>
